Coordinates
version=1
nRows=17
nColumns=36
inDegrees=yes

Units are S.I. units (second, meters, Newtons, ...)
If the header above contains a line with 'inDegrees', this indicates whether rotational values are in degrees (yes) or radians (no).

endheader
time	pelvis_tilt	pelvis_list	pelvis_rotation	pelvis_tx	pelvis_ty	pelvis_tz	hip_flexion_r	hip_adduction_r	hip_rotation_r	knee_angle_r	knee_angle_r_beta	ankle_angle_r	subtalar_angle_r	mtp_angle_r	hip_flexion_l	hip_adduction_l	hip_rotation_l	knee_angle_l	knee_angle_l_beta	ankle_angle_l	subtalar_angle_l	mtp_angle_l	lumbar_extension	lumbar_bending	lumbar_rotation	arm_flex_r	arm_add_r	arm_rot_r	elbow_flex_r	pro_sup_r	arm_flex_l	arm_add_l	arm_rot_l	elbow_flex_l	pro_sup_l
      7.50000000	     -3.86504048	     -9.17687730	     -2.95167333	      0.75902905	      0.88803613	      0.02993581	     35.60049006	     -2.66758668	     -9.97107618	     45.37689628	      0.79197624	      5.24397955	    -12.67048964	     -7.49999987	     17.51696500	     -1.15555415	      8.89208089	     28.62324134	      0.49956980	     19.25943828	    -12.56736695	     -7.49999987	    -17.28162457	     -5.32725050	      8.25941983	     25.51984498	    -10.69569384	     62.64030410	    132.15456563	     91.55467767	     36.72179479	     -6.92618410	     58.26735448	    118.38348181	     93.68684083
      7.51666670	     -3.92203007	     -8.55578750	     -2.80639167	      0.75917428	      0.88345650	      0.03082586	     36.37415794	     -2.34078734	     -9.43576044	     43.37705734	      0.75707247	      5.72254300	    -11.90460201	     -7.49999987	     18.64098262	     -0.35763382	      8.98129781	     29.98029249	      0.52325481	     19.16613780	    -13.05941485	     -7.49999987	    -17.81623307	     -5.76182865	      7.85564937	     25.72330304	    -10.08629564	     63.68529312	    132.45379260	     91.95607647	     37.49261489	     -6.70963153	     59.12841964	    118.52024213	     93.89249763
      7.53333330	     -3.93200368	     -7.74340785	     -2.53699261	      0.75823884	      0.88097071	      0.03145382	     37.65573986	     -2.27850778	     -8.65878987	     41.89301405	      0.73117103	      6.42091978	    -11.06648540	     -7.49999987	     19.91290145	      0.66026799	      9.01659023	     31.43972664	      0.54872675	     19.67673997	    -13.25300432	     -7.49999987	    -18.60967009	     -6.34949121	      7.35418209	     26.08277954	     -9.56304467	     63.64455271	    132.49924796	     92.08997626	     38.26967780	     -6.78706081	     59.97444661	    118.98489914	     93.94606225
      7.55000000	     -3.89230654	     -6.80126741	     -2.27220615	      0.75331397	      0.87574242	      0.02943602	     39.05676148	     -2.59912922	     -8.04524705	     40.85002715	      0.71296747	      7.07309466	    -10.27444285	     -7.49999987	     21.44362311	      1.86577457	      9.11125667	     33.27157358	      0.58069851	     20.06560094	    -13.44443266	     -7.49999987	    -19.63245968	     -6.87549832	      6.71421621	     26.78368001	     -9.24577844	     63.16280975	    132.71073889	     92.35742864	     39.39728691	     -6.80494831	     60.53442491	    119.68872645	     94.15009047
      7.56666670	     -3.95546612	     -5.85040964	     -1.89154299	      0.75256219	      0.87300018	      0.02996403	     40.81914737	     -3.02987718	     -7.42808318	     40.22583753	      0.70207331	      7.75177691	     -9.37965547	     -7.49999987	     22.91384046	      3.08420681	      8.98159351	     34.84686024	      0.60819245	     20.80390230	    -13.26039083	     -7.49999987	    -20.58271383	     -7.48508218	      6.22909964	     27.08017417	     -8.72821099	     61.96869671	    132.90849759	     96.77456749	     40.54825086	     -6.71514818	     61.09236486	    120.50093078	     97.00786393
      7.58333330	     -3.62126556	     -5.22669332	     -1.37370026	      0.75191459	      0.86865154	      0.03041766	     41.77701740	     -3.28514912	     -7.01439627	     39.15368622	      0.68336074	      8.20928136	     -8.83274877	     -7.49999987	     23.44801239	      4.01202108	      8.95646059	     36.03063743	      0.62885325	     21.85641090	    -13.11831192	     -7.49999987	    -21.54420139	     -7.58169337	      5.53306837	     27.64807546	     -8.22260679	     61.15813662	    132.92592454	     96.73497270	     41.49486257	     -6.72028203	     60.93133523	    120.89360137	     97.00310679
      7.60000000	     -3.02331846	     -4.63238313	     -0.68882077	      0.75048742	      0.86854505	      0.03047256	     42.15142690	     -3.47721118	     -6.83278322	     37.69926399	      0.65797628	      7.98719149	     -8.25679721	     -7.49999987	     23.15450469	      4.87821958	      8.82398964	     36.59016977	      0.63861894	     23.06858972	    -12.57775620	     -7.49999987	    -22.70101200	     -7.67576546	      4.79860758	     27.88252075	     -7.69505141	     60.81987151	    132.67006868	     96.47972365	     42.33394181	     -6.87689793	     60.68635468	    121.30240809	     96.75212602
      7.61666670	     -2.62393454	     -4.10332570	     -0.15603401	      0.74989582	      0.86638068	      0.03107353	     42.60377006	     -3.68739770	     -6.72634918	     36.49020311	      0.63687419	      7.24514297	     -7.80027277	     -7.49999987	     23.23979473	      5.64029341	      8.75695308	     37.39939419	      0.65274257	     23.80052680	    -12.25727018	     -7.49999987	    -23.47523346	     -7.81980883	      4.48507288	     27.57777134	     -7.27140880	     61.53041493	    132.22283236	     96.52989237	     42.76267992	     -6.88685643	     60.77874546	    121.27400817	     96.76420896
      7.63333330	     -2.24018294	     -3.51814010	      0.41659638	      0.74801883	      0.86350523	      0.03056240	     43.62017582	     -4.17437936	     -6.67378244	     35.55810804	      0.62060606	      6.70167891	     -7.31692098	     -7.49999987	     23.52887399	      6.48434193	      8.54874630	     38.42108186	      0.67057438	     24.74110225	    -11.62781564	     -7.49999987	    -24.49691981	     -8.03651368	      3.90025808	     27.65145474	     -7.41751109	     62.09791850	    131.67884043	     96.28558434	     43.38443707	     -7.13390357	     60.89519919	    120.92404687	     96.48054637
      7.65000000	     -1.55805176	     -2.93686009	      0.89270400	      0.74635057	      0.86459033	      0.03082963	     44.44297683	     -4.72738121	     -6.81488503	     34.48893936	      0.60194555	      6.45858769	     -7.01467183	     -7.49999987	     23.70129814	      7.16349696	      8.02743300	     39.82226206	      0.69502959	     25.81314626	    -10.24591991	     -7.49999987	    -25.84135367	     -8.18497318	      2.85573964	     28.90438817	     -6.95226356	     62.56113216	    130.56731230	     94.39107708	     44.20775434	     -7.83618711	     61.04111941	    121.00527045	     94.33433210
      7.66666670	     -1.09720111	     -2.21034508	      1.43313549	      0.74466914	      0.86187378	      0.03054358	     45.13837085	     -5.47422764	     -6.97527468	     33.56534312	      0.58582575	      6.15502266	     -6.78626369	     -7.49999987	     23.96255249	      8.04061691	      7.61231556	     41.22719921	      0.71955037	     26.38150706	     -9.61164953	     -7.49999987	    -27.03935287	     -8.49479633	      1.95080347	     29.82826179	     -6.51813586	     62.34157611	    129.82924924	     94.78136839	     45.36500833	     -8.23450305	     61.63135383	    121.03149995	     94.47409573
      7.68333330	     -0.77492463	     -1.25882306	      2.03947512	      0.73948132	      0.85899277	      0.02821027	     46.29652546	     -6.55591837	     -7.12037048	     32.83241289	      0.57303371	      5.49469027	     -6.31894590	     -7.49999987	     24.41337136	      9.21110271	      7.11441155	     42.47969465	      0.74141054	     26.92906831	     -8.89248695	     -7.49999987	    -28.35891550	     -9.02116111	      0.87754724	     31.08700236	     -6.11617085	     61.73435607	    129.48542073	     94.96508550	     46.88627415	     -8.24539341	     62.28777018	    121.35706989	     94.42846326
      7.70000000	     -0.59722039	     -0.42970124	      2.55961990	      0.73840472	      0.85121449	      0.02731544	     47.16001298	     -7.36492776	     -7.27576654	     32.27002378	      0.56321816	      4.79243808	     -6.08748840	     -7.49999987	     24.80702212	     10.21875996	      6.68758487	     43.57660751	      0.76055528	     27.40747298	     -8.41037187	     -7.49999987	    -29.47701232	     -9.39435008	     -0.14040328	     32.42783479	     -5.74084105	     62.50494725	    130.03695096	     94.02379179	     48.64636885	     -8.05760589	     63.05868850	    121.99381163	     93.10578396
      7.71666670	     -0.35310713	      0.44866991	      2.98646673	      0.73804573	      0.85151880	      0.02768240	     48.08932662	     -8.32462957	     -7.30197112	     31.89061742	      0.55659627	      3.70673362	     -5.87858878	     -7.49999987	     25.14633343	     11.20670098	      6.22682992	     44.65242201	      0.77933178	     27.79248121	     -8.00794102	     -7.49999987	    -30.55291661	     -9.79276469	     -0.91484098	     33.21861508	     -5.51606119	     61.89282477	    129.83087215	     94.13212373	     49.82502832	     -7.64957375	     63.14314055	    122.32939823	     93.15079703
      7.73333330	     -0.15400545	      1.54713564	      3.45395777	      0.73707718	      0.84650490	      0.02780774	     49.24703382	     -9.43307853	     -6.86566237	     31.65720201	      0.55252241	      2.82003286	     -5.66401879	     -7.49999987	     25.89743531	     12.33452491	      5.42639352	     46.20169029	      0.80637162	     28.35254074	     -7.29848778	     -7.49999987	    -31.58756156	    -10.50434085	     -1.94021866	     33.54958546	     -5.08021752	     61.12931397	    129.50433042	     94.45227275	     51.11997196	     -7.60949534	     63.45852602	    122.78696615	     93.20164532
      7.75000000	      0.14408190	      2.59197425	      3.79759837	      0.74143153	      0.84581788	      0.02637957	     50.01581326	    -10.46748388	     -6.77541831	     31.13307040	      0.54337458	      2.11843163	     -5.30553430	     -7.49999987	     26.38489154	     13.43479497	      4.92320467	     47.69333379	      0.83240571	     28.85293102	     -7.21927889	     -7.49999987	    -32.61151067	    -10.96670404	     -2.60555424	     33.42650603	     -5.02741096	     61.12939844	    129.16004798	     94.55991590	     51.62586092	     -7.51971569	     63.08384712	    122.45484814	     93.18815908
      7.76666670	      0.37484637	      3.62925130	      3.91334561	      0.74512971	      0.84642073	      0.02910870	     50.76124120	    -11.26071866	     -6.29656103	     30.91134061	      0.53950467	      1.43310001	     -5.07645976	     -7.49999987	     26.89975353	     14.37876507	      4.31204547	     49.13967163	      0.85764906	     29.36265658	     -7.02500717	     -7.49999987	    -33.45996339	    -11.61481149	     -3.15641323	     33.07332935	     -4.55871682	     60.76050195	    128.13784230	     94.74075416	     51.51129711	     -8.06059090	     62.95436618	    121.82196083	     93.17871449
